<?xml version="1.0" standalone="no"?>
<!DOCTYPE svg PUBLIC "-//W3C//DTD SVG 20010904//EN"
 "http://www.w3.org/TR/2001/REC-SVG-20010904/DTD/svg10.dtd">
<svg version="1.0" xmlns="http://www.w3.org/2000/svg"
 width="290.000000pt" height="290.000000pt" viewBox="0 0 290.000000 290.000000"
 preserveAspectRatio="xMidYMid meet">
<metadata>
Created by potrace 1.14, written by Peter Selinger 2001-2017
</metadata>
<g transform="translate(0.000000,290.000000) scale(0.100000,-0.100000)"
fill="#000000" stroke="none">
<path d="M483 2754 c-158 -33 -262 -125 -298 -262 -15 -53 -20 -202 -10 -277
7 -53 15 -109 20 -142 17 -115 20 -149 19 -248 0 -118 -21 -197 -65 -243 l-20
-23 38 -15 c143 -60 1036 -463 1215 -549 l57 -27 130 76 130 76 178 -2 177 -3
-80 -46 c-43 -26 -182 -106 -307 -179 l-228 -131 -52 29 c-29 15 -164 92 -302
169 -137 77 -279 157 -315 177 -36 20 -72 41 -80 46 -8 6 -22 13 -30 17 -8 4
-60 32 -115 63 -108 61 -332 187 -405 228 -25 13 -49 28 -55 32 -5 4 -27 2
-47 -4 l-38 -11 48 -17 c123 -44 180 -174 168 -381 -3 -60 -8 -112 -10 -116
-2 -3 -7 -30 -11 -60 -4 -30 -8 -61 -10 -70 -34 -176 -17 -369 40 -467 43 -74
144 -145 241 -171 16 -4 441 -9 944 -10 987 -3 980 -3 1090 49 100 49 167 144
191 275 11 54 7 253 -5 312 -3 13 -8 49 -12 80 -3 31 -10 79 -14 106 -12 77
-5 234 14 291 9 28 26 67 39 86 l24 34 -46 18 c-25 11 -158 66 -296 124 -224
94 -306 128 -455 195 -25 11 -115 50 -200 87 -85 38 -188 84 -229 103 l-73 34
-97 -55 c-53 -30 -112 -64 -131 -75 -19 -11 -78 -44 -130 -73 l-95 -53 -90 2
-90 2 0 50 0 50 235 137 c129 76 249 145 265 153 17 9 54 30 83 46 l54 31 50
-31 c27 -17 52 -31 54 -31 3 0 46 -24 97 -54 51 -30 108 -63 127 -74 19 -11
64 -36 100 -57 36 -21 81 -46 100 -57 58 -33 144 -82 165 -95 11 -7 26 -15 34
-19 7 -4 101 -58 209 -121 107 -62 196 -113 197 -113 2 0 45 -25 96 -55 62
-37 96 -52 104 -45 6 5 36 16 65 23 l54 14 -50 7 c-137 19 -204 148 -190 366
3 52 8 106 10 120 4 24 8 52 24 170 4 30 7 111 6 180 0 107 -4 134 -23 184
-44 110 -153 192 -293 222 -87 18 -1808 16 -1895 -2z m797 -1179 c102 -60 199
-116 215 -125 17 -10 57 -33 90 -52 56 -33 91 -53 205 -116 55 -30 160 -93
160 -95 0 -1 -81 -1 -180 0 l-181 2 -77 44 c-42 24 -99 57 -127 72 -27 15 -79
44 -115 65 -36 20 -85 48 -110 62 -25 14 -115 66 -200 116 -144 84 -179 114
-152 131 6 3 72 5 149 5 l138 -2 185 -107z"/>
</g>
</svg>
